G04*
G04 #@! TF.GenerationSoftware,Altium Limited,Altium Designer,26.3.0 (6)*
G04*
G04 Layer_Physical_Order=2*
G04 Layer_Color=36540*
%FSLAX44Y44*%
%MOMM*%
G71*
G04*
G04 #@! TF.SameCoordinates,41C90B2F-4F5D-4019-9CA7-D3A1E023C9F7*
G04*
G04*
G04 #@! TF.FilePolarity,Positive*
G04*
G01*
G75*
%ADD27C,0.3500*%
%ADD28C,0.6000*%
G36*
X140998Y22640D02*
X131652Y11424D01*
X35560Y11430D01*
Y115570D01*
X140998D01*
Y22640D01*
D02*
G37*
%LPC*%
G36*
X69830Y94335D02*
Y90150D01*
X74015D01*
X73243Y92015D01*
X71695Y93563D01*
X69830Y94335D01*
D02*
G37*
G36*
X67330D02*
X65465Y93563D01*
X63917Y92015D01*
X63145Y90150D01*
X67330D01*
Y94335D01*
D02*
G37*
G36*
X113050Y89255D02*
X111185Y88483D01*
X109637Y86936D01*
X108092Y87123D01*
X108026Y87189D01*
X106556Y87798D01*
X104964D01*
X103494Y87189D01*
X102369Y86064D01*
X101760Y84594D01*
Y83002D01*
X102369Y81532D01*
X103494Y80407D01*
X104964Y79798D01*
X106556D01*
X108026Y80407D01*
X108104Y80486D01*
X109637Y80704D01*
X111185Y79157D01*
X113050Y78385D01*
Y83820D01*
Y89255D01*
D02*
G37*
G36*
X115550D02*
Y85070D01*
X119735D01*
X118963Y86936D01*
X117416Y88483D01*
X115550Y89255D01*
D02*
G37*
G36*
X74015Y87650D02*
X69830D01*
Y83465D01*
X71695Y84237D01*
X73243Y85785D01*
X74015Y87650D01*
D02*
G37*
G36*
X67330D02*
X63145D01*
X63917Y85785D01*
X65465Y84237D01*
X67330Y83465D01*
Y87650D01*
D02*
G37*
G36*
X119735Y82570D02*
X115550D01*
Y78385D01*
X117416Y79157D01*
X118963Y80704D01*
X119735Y82570D01*
D02*
G37*
G36*
X50326Y76390D02*
X48734D01*
X47264Y75781D01*
X46139Y74656D01*
X45530Y73186D01*
Y71594D01*
X46139Y70124D01*
X47264Y68999D01*
X48734Y68390D01*
X50326D01*
X51796Y68999D01*
X52921Y70124D01*
X53530Y71594D01*
Y73186D01*
X52921Y74656D01*
X51796Y75781D01*
X50326Y76390D01*
D02*
G37*
G36*
X109644Y60807D02*
Y56622D01*
X113830D01*
X113057Y58488D01*
X111510Y60035D01*
X109644Y60807D01*
D02*
G37*
G36*
X107144D02*
X105279Y60035D01*
X103732Y58488D01*
X102959Y56622D01*
X107144D01*
Y60807D01*
D02*
G37*
G36*
X41187Y57360D02*
X40093D01*
X39082Y56941D01*
X38309Y56168D01*
X37890Y55157D01*
Y54063D01*
X38309Y53052D01*
X39082Y52279D01*
X40093Y51860D01*
X41187D01*
X42198Y52279D01*
X42971Y53052D01*
X43390Y54063D01*
Y55157D01*
X42971Y56168D01*
X42198Y56941D01*
X41187Y57360D01*
D02*
G37*
G36*
X113830Y54122D02*
X109644D01*
Y49937D01*
X111510Y50709D01*
X113057Y52256D01*
X113830Y54122D01*
D02*
G37*
G36*
X107144D02*
X102959D01*
X103732Y52256D01*
X105279Y50709D01*
X107144Y49937D01*
Y54122D01*
D02*
G37*
G36*
X72937Y70060D02*
X71843D01*
X70832Y69641D01*
X70059Y68868D01*
X69640Y67857D01*
Y66763D01*
X70059Y65752D01*
X70832Y64979D01*
X70909Y64947D01*
Y63323D01*
X70832Y63291D01*
X70059Y62518D01*
X69640Y61507D01*
Y60413D01*
X70059Y59402D01*
X70832Y58629D01*
X70909Y58597D01*
Y56973D01*
X70832Y56941D01*
X70059Y56168D01*
X69640Y55157D01*
Y54063D01*
X70059Y53052D01*
X70832Y52279D01*
X70909Y52247D01*
Y50623D01*
X70832Y50591D01*
X70059Y49818D01*
X69640Y48807D01*
Y47713D01*
X70059Y46702D01*
X70832Y45929D01*
X71843Y45510D01*
X72937D01*
X73948Y45929D01*
X74721Y46702D01*
X75140Y47713D01*
Y48807D01*
X74721Y49818D01*
X73948Y50591D01*
X73871Y50623D01*
Y52247D01*
X73948Y52279D01*
X74721Y53052D01*
X75140Y54063D01*
Y55157D01*
X74721Y56168D01*
X73948Y56941D01*
X73871Y56973D01*
Y58597D01*
X73948Y58629D01*
X74721Y59402D01*
X75140Y60413D01*
Y61507D01*
X74721Y62518D01*
X73948Y63291D01*
X73871Y63323D01*
Y64947D01*
X73948Y64979D01*
X74721Y65752D01*
X75140Y66763D01*
Y67857D01*
X74721Y68868D01*
X73948Y69641D01*
X72937Y70060D01*
D02*
G37*
G36*
X133330Y43535D02*
Y39350D01*
X137515D01*
X136743Y41216D01*
X135196Y42763D01*
X133330Y43535D01*
D02*
G37*
G36*
X130830D02*
X128965Y42763D01*
X127417Y41216D01*
X126645Y39350D01*
X130830D01*
Y43535D01*
D02*
G37*
G36*
X99607Y44660D02*
X98513D01*
X97502Y44241D01*
X96729Y43468D01*
X96310Y42457D01*
Y41363D01*
X96729Y40352D01*
X97502Y39579D01*
X97579Y39547D01*
Y37923D01*
X97502Y37891D01*
X96729Y37118D01*
X96310Y36107D01*
Y35013D01*
X96729Y34002D01*
X97502Y33229D01*
X98513Y32810D01*
X99607D01*
X100618Y33229D01*
X101391Y34002D01*
X101810Y35013D01*
Y36107D01*
X101391Y37118D01*
X100618Y37891D01*
X100541Y37923D01*
Y39547D01*
X100618Y39579D01*
X101391Y40352D01*
X101810Y41363D01*
Y42457D01*
X101391Y43468D01*
X100618Y44241D01*
X99607Y44660D01*
D02*
G37*
G36*
X137515Y36850D02*
X133330D01*
Y32665D01*
X135196Y33437D01*
X136743Y34985D01*
X137515Y36850D01*
D02*
G37*
G36*
X130830D02*
X126645D01*
X127417Y34985D01*
X128965Y33437D01*
X130830Y32665D01*
Y36850D01*
D02*
G37*
G36*
X71100Y32105D02*
Y27920D01*
X75285D01*
X74513Y29785D01*
X72965Y31333D01*
X71100Y32105D01*
D02*
G37*
G36*
X68600D02*
X66734Y31333D01*
X65187Y29785D01*
X64415Y27920D01*
X68600D01*
Y32105D01*
D02*
G37*
G36*
X75285Y25420D02*
X71100D01*
Y21235D01*
X72965Y22007D01*
X74513Y23554D01*
X75285Y25420D01*
D02*
G37*
G36*
X68600D02*
X64415D01*
X65187Y23554D01*
X66734Y22007D01*
X68600Y21235D01*
Y25420D01*
D02*
G37*
%LPD*%
D27*
X72390Y67310D02*
D03*
X99060Y41910D02*
D03*
Y35560D02*
D03*
X72390Y48260D02*
D03*
Y60960D02*
D03*
Y54610D02*
D03*
X40640D02*
D03*
D28*
X132080Y38100D02*
D03*
X105760Y83798D02*
D03*
X114300Y83820D02*
D03*
X108394Y55372D02*
D03*
X49530Y72390D02*
D03*
X68580Y88900D02*
D03*
X69850Y26670D02*
D03*
M02*
