G04*
G04 #@! TF.GenerationSoftware,Altium Limited,Altium Designer,26.3.0 (6)*
G04*
G04 Layer_Color=65535*
%FSLAX44Y44*%
%MOMM*%
G71*
G04*
G04 #@! TF.SameCoordinates,41C90B2F-4F5D-4019-9CA7-D3A1E023C9F7*
G04*
G04*
G04 #@! TF.FilePolarity,Positive*
G04*
G01*
G75*
%ADD10C,0.2000*%
%ADD11C,0.1524*%
%ADD12C,0.2540*%
D10*
X41475Y62430D02*
G03*
X41475Y62430I-1000J0D01*
G01*
D11*
X103289Y62905D02*
G03*
X103289Y61364I1010J-770D01*
G01*
X103886Y33655D02*
X112183D01*
X137414D02*
Y41913D01*
X129117Y77089D02*
X137414D01*
X103886Y68831D02*
Y77089D01*
X137414Y68831D02*
Y77089D01*
X103886Y33655D02*
Y41913D01*
Y77089D02*
X112183D01*
X129117Y33655D02*
X137414D01*
D12*
X45813Y29208D02*
X45813Y16512D01*
X48352Y13973D01*
X53431Y13973D01*
X55970Y16512D01*
X55970Y29207D01*
X61048Y13972D02*
X66126Y13972D01*
X63587Y13972D01*
X63588Y29207D01*
X61048Y26668D01*
X107954Y28651D02*
Y15955D01*
X110493Y13415D01*
X115572D01*
X118111Y15955D01*
Y28651D01*
X133346Y13415D02*
X123189D01*
X133346Y23572D01*
Y26111D01*
X130807Y28651D01*
X125728D01*
X123189Y26111D01*
X39929Y94064D02*
Y104060D01*
X44928D01*
X46594Y102394D01*
Y99062D01*
X44928Y97396D01*
X39929D01*
X43262D02*
X46594Y94064D01*
X49926Y102394D02*
X51592Y104060D01*
X54925D01*
X56591Y102394D01*
Y100728D01*
X54925Y99062D01*
X53258D01*
X54925D01*
X56591Y97396D01*
Y95730D01*
X54925Y94064D01*
X51592D01*
X49926Y95730D01*
X46595Y87152D02*
X44929Y88818D01*
X41596Y88817D01*
X39931Y87150D01*
X39933Y80485D01*
X41600Y78820D01*
X44932Y78821D01*
X46598Y80488D01*
X49931Y78823D02*
X53263Y78824D01*
X51597Y78823D01*
X51593Y88820D01*
X49928Y87153D01*
X125334Y110012D02*
X123668Y111678D01*
X120336D01*
X118669Y110012D01*
Y103348D01*
X120336Y101682D01*
X123668D01*
X125334Y103348D01*
X135331Y101682D02*
X128666D01*
X135331Y108346D01*
Y110012D01*
X133665Y111678D01*
X130332D01*
X128666Y110012D01*
X125334Y94772D02*
X123668Y96438D01*
X120336D01*
X118669Y94772D01*
Y88108D01*
X120336Y86442D01*
X123668D01*
X125334Y88108D01*
X128666Y94772D02*
X130332Y96438D01*
X133665D01*
X135331Y94772D01*
Y93106D01*
X133665Y91440D01*
X131998D01*
X133665D01*
X135331Y89774D01*
Y88108D01*
X133665Y86442D01*
X130332D01*
X128666Y88108D01*
X39929Y109302D02*
Y119298D01*
X44928D01*
X46594Y117632D01*
Y114300D01*
X44928Y112634D01*
X39929D01*
X43262D02*
X46594Y109302D01*
X49926D02*
X53258D01*
X51592D01*
Y119298D01*
X49926Y117632D01*
X83931Y103598D02*
X93927Y103563D01*
X93910Y98565D01*
X92238Y96904D01*
X88906Y96916D01*
X87246Y98588D01*
X87263Y103586D01*
X87251Y100254D02*
X83907Y96933D01*
X83873Y86937D02*
X83896Y93601D01*
X90537Y86913D01*
X92203Y86908D01*
X93875Y88568D01*
X93887Y91900D01*
X92226Y93572D01*
M02*
