G04*
G04 #@! TF.GenerationSoftware,Altium Limited,Altium Designer,26.3.0 (6)*
G04*
G04 Layer_Physical_Order=1*
G04 Layer_Color=255*
%FSLAX44Y44*%
%MOMM*%
G71*
G04*
G04 #@! TF.SameCoordinates,41C90B2F-4F5D-4019-9CA7-D3A1E023C9F7*
G04*
G04*
G04 #@! TF.FilePolarity,Positive*
G04*
G01*
G75*
%ADD13R,0.6900X0.5900*%
%ADD14R,0.3000X0.3000*%
%ADD22R,0.4064X0.9398*%
%ADD23R,1.2954X0.3556*%
%ADD24R,0.3556X2.3114*%
%ADD25C,0.1500*%
%ADD26C,0.3000*%
%ADD27C,0.3500*%
%ADD28C,0.6000*%
D13*
X62320Y46430D02*
D03*
X49520D02*
D03*
X62320Y38430D02*
D03*
X49520Y62430D02*
D03*
Y54430D02*
D03*
Y38430D02*
D03*
X62320Y54430D02*
D03*
Y62430D02*
D03*
D14*
X68580Y96520D02*
D03*
X62580D02*
D03*
Y81280D02*
D03*
X68580D02*
D03*
X105760Y106680D02*
D03*
X111760D02*
D03*
X105760Y93980D02*
D03*
X111760D02*
D03*
X68580Y106680D02*
D03*
X62580D02*
D03*
X87630Y81280D02*
D03*
X81630D02*
D03*
D22*
X125159Y62135D02*
D03*
X116142D02*
D03*
X125159Y48609D02*
D03*
X116142D02*
D03*
D23*
X120650Y72644D02*
D03*
Y38100D02*
D03*
D24*
X108394Y55372D02*
D03*
X132906D02*
D03*
D25*
X72390Y67310D02*
X72580Y67500D01*
X77660D01*
X87630Y77470D01*
X99215Y42065D02*
X121281D01*
X99060Y41910D02*
X99215Y42065D01*
X123876Y44660D02*
Y47327D01*
X121281Y42065D02*
X123876Y44660D01*
X99060Y31359D02*
Y35560D01*
Y31359D02*
X99939Y30480D01*
X140091D01*
X140970Y31359D01*
Y64770D01*
X135890Y69850D02*
X140970Y64770D01*
X130207Y69850D02*
X135890D01*
X125159Y64802D02*
X130207Y69850D01*
X125159Y62135D02*
Y64802D01*
X123876Y47327D02*
X125159Y48609D01*
X70019Y46430D02*
X71849Y48260D01*
X62320Y46430D02*
X70019D01*
X71849Y48260D02*
X72390D01*
X63790Y60960D02*
X72390D01*
X62320Y62430D02*
X63790Y60960D01*
X68580Y106680D02*
X73660D01*
X62500Y54610D02*
X72390D01*
X62320Y54430D02*
X62500Y54610D01*
X40640D02*
X49340D01*
X72781Y96520D02*
X73660Y95641D01*
X68580Y96520D02*
X72781D01*
X73660Y78740D02*
Y95641D01*
X64928Y70008D02*
X73660Y78740D01*
X67310Y106680D02*
X68580D01*
X76200Y76310D02*
Y104140D01*
X73660Y106680D02*
X76200Y104140D01*
X58578Y70008D02*
X64928D01*
X55880Y67310D02*
X58578Y70008D01*
X55880Y55309D02*
Y67310D01*
Y55309D02*
X56759Y54430D01*
X62320D01*
Y62430D02*
X62820D01*
X65020Y64630D01*
Y65130D01*
X76200Y76310D01*
X87630Y77470D02*
Y81280D01*
X49340Y54610D02*
X49520Y54430D01*
D26*
X120650Y38100D02*
X132080D01*
X132627Y38647D02*
Y55094D01*
X132080Y38100D02*
X132627Y38647D01*
X105760Y83798D02*
Y93980D01*
X111760Y87077D02*
Y106680D01*
Y87077D02*
X114300Y84537D01*
Y83008D02*
Y84537D01*
X115673Y72922D02*
Y81635D01*
X114300Y83008D02*
X115673Y81635D01*
X132627Y55094D02*
X132906Y55372D01*
X105760Y93980D02*
Y106680D01*
Y75183D02*
Y83798D01*
Y75183D02*
X115610Y65334D01*
Y62667D02*
Y65334D01*
Y62667D02*
X116142Y62135D01*
X115951Y72644D02*
X120650D01*
X115673Y72922D02*
X115951Y72644D01*
X64337Y113030D02*
X78253D01*
X80010Y82900D02*
Y111273D01*
X78253Y113030D02*
X80010Y111273D01*
Y82900D02*
X81630Y81280D01*
X62320Y38430D02*
X62820D01*
X64270Y36980D01*
Y36480D02*
X69662Y31088D01*
Y26858D02*
X69850Y26670D01*
X64270Y36480D02*
Y36980D01*
X69662Y26858D02*
Y31088D01*
X62580Y81280D02*
Y96520D01*
Y77820D02*
Y81280D01*
X50247Y72390D02*
X52787Y74930D01*
X59690D01*
X49530Y72390D02*
X50247D01*
X49525Y62435D02*
Y72385D01*
X49520Y62430D02*
X49525Y62435D01*
X59690Y74930D02*
X62580Y77820D01*
X68580Y81280D02*
Y88900D01*
X62580Y96520D02*
Y106680D01*
Y111273D01*
X64337Y113030D01*
X60870Y39880D02*
X62320Y38430D01*
X53445Y44980D02*
X58545Y39880D01*
X50970Y44980D02*
X53445D01*
X49520Y46430D02*
X50970Y44980D01*
X58545Y39880D02*
X60870D01*
D27*
X72390Y67310D02*
D03*
X99060Y41910D02*
D03*
Y35560D02*
D03*
X72390Y48260D02*
D03*
Y60960D02*
D03*
Y54610D02*
D03*
X40640D02*
D03*
D28*
X132080Y38100D02*
D03*
X105760Y83798D02*
D03*
X114300Y83820D02*
D03*
X108394Y55372D02*
D03*
X49530Y72390D02*
D03*
X68580Y88900D02*
D03*
X69850Y26670D02*
D03*
M02*
