G04*
G04 #@! TF.GenerationSoftware,Altium Limited,Altium Designer,26.3.0 (6)*
G04*
G04 Layer_Physical_Order=4*
G04 Layer_Color=16711680*
%FSLAX44Y44*%
%MOMM*%
G71*
G04*
G04 #@! TF.SameCoordinates,41C90B2F-4F5D-4019-9CA7-D3A1E023C9F7*
G04*
G04*
G04 #@! TF.FilePolarity,Positive*
G04*
G01*
G75*
%ADD25C,0.1500*%
%ADD26C,0.3000*%
%ADD27C,0.3500*%
%ADD28C,0.6000*%
%ADD29R,0.4200X0.3000*%
%ADD30R,0.3200X0.4600*%
%ADD31R,0.3200X0.1800*%
D25*
X53340Y67310D02*
X72390D01*
X75560Y64140D01*
X78240D01*
X98519Y35560D02*
X99060D01*
X97939Y36140D02*
X98519Y35560D01*
X93240Y36140D02*
X97939D01*
X98519Y41910D02*
X99060D01*
X97289Y43140D02*
X98519Y41910D01*
X93240Y43140D02*
X97289D01*
X72773Y48643D02*
Y49913D01*
X72390Y48260D02*
X72773Y48643D01*
Y49913D02*
X76350Y53490D01*
X78090D01*
X78240Y53640D01*
X72390Y54610D02*
X74770Y56990D01*
X78090D01*
X72390Y54610D02*
X72390D01*
X78240Y53640D02*
X93240D01*
X72390Y60960D02*
X72560Y60790D01*
X78090D01*
X78240Y60640D01*
X78090Y56990D02*
X78240Y57140D01*
X93240D01*
X78240Y50140D02*
X93240D01*
X40640Y54610D02*
X53340Y67310D01*
D26*
X105548Y83586D02*
X105760Y83798D01*
X101366Y83586D02*
X105548D01*
X99060Y81280D02*
X101366Y83586D01*
X99060Y49925D02*
Y81280D01*
X95876Y46740D02*
X99060Y49925D01*
X93340Y46740D02*
X95876D01*
X72815Y20740D02*
X78240D01*
X70424Y23131D02*
X72815Y20740D01*
X78340Y69140D02*
Y72390D01*
X78240Y69040D02*
X78340Y69140D01*
Y72390D02*
Y74540D01*
X93140Y69140D02*
Y74540D01*
Y69140D02*
X93240Y69040D01*
X78340Y20740D02*
X93240D01*
X78740Y74540D02*
X92740D01*
X93140Y15240D02*
Y20640D01*
X78340Y15240D02*
Y20640D01*
Y15240D02*
X78740D01*
X78340Y74540D02*
X78740D01*
X92740Y15240D02*
X93140D01*
Y20640D02*
X93240Y20740D01*
X70424Y23131D02*
Y26096D01*
X69850Y26670D02*
X70424Y26096D01*
X49530Y72390D02*
X78340D01*
D27*
X72390Y67310D02*
D03*
X99060Y41910D02*
D03*
Y35560D02*
D03*
X72390Y48260D02*
D03*
Y60960D02*
D03*
Y54610D02*
D03*
X40640D02*
D03*
D28*
X132080Y38100D02*
D03*
X105760Y83798D02*
D03*
X114300Y83820D02*
D03*
X108394Y55372D02*
D03*
X49530Y72390D02*
D03*
X68580Y88900D02*
D03*
X69850Y26670D02*
D03*
D29*
X92740Y15240D02*
D03*
X78740D02*
D03*
Y74540D02*
D03*
X92740D02*
D03*
D30*
X93240Y20740D02*
D03*
X78240D02*
D03*
Y69040D02*
D03*
X93240D02*
D03*
D31*
X78240Y25640D02*
D03*
X93240D02*
D03*
X78240Y29140D02*
D03*
X93240D02*
D03*
X78240Y32640D02*
D03*
X93240D02*
D03*
X78240Y36140D02*
D03*
X93240D02*
D03*
X78240Y39640D02*
D03*
X93240D02*
D03*
X78240Y43140D02*
D03*
X93240D02*
D03*
X78240Y46640D02*
D03*
X93240D02*
D03*
X78240Y50140D02*
D03*
X93240D02*
D03*
X78240Y53640D02*
D03*
X93240D02*
D03*
X78240Y57140D02*
D03*
X93240D02*
D03*
X78240Y60640D02*
D03*
X93240D02*
D03*
X78240Y64140D02*
D03*
X93240D02*
D03*
M02*
