G04*
G04 #@! TF.GenerationSoftware,Altium Limited,Altium Designer,26.3.0 (6)*
G04*
G04 Layer_Physical_Order=3*
G04 Layer_Color=16440176*
%FSLAX44Y44*%
%MOMM*%
G71*
G04*
G04 #@! TF.SameCoordinates,41C90B2F-4F5D-4019-9CA7-D3A1E023C9F7*
G04*
G04*
G04 #@! TF.FilePolarity,Positive*
G04*
G01*
G75*
%ADD27C,0.3500*%
%ADD28C,0.6000*%
G36*
X96520Y42964D02*
X96310Y42457D01*
Y41363D01*
X96520Y40856D01*
Y36614D01*
X96310Y36107D01*
Y35013D01*
X96520Y34506D01*
Y11430D01*
X35560D01*
Y115570D01*
X96520D01*
Y42964D01*
D02*
G37*
G36*
X140970Y22576D02*
X131636Y11430D01*
X100330D01*
Y33110D01*
X100618Y33229D01*
X101391Y34002D01*
X101810Y35013D01*
Y36107D01*
X101391Y37118D01*
X100618Y37891D01*
X100330Y38010D01*
Y39460D01*
X100618Y39579D01*
X101391Y40352D01*
X101810Y41363D01*
Y42457D01*
X101391Y43468D01*
X100618Y44241D01*
X100330Y44360D01*
Y79329D01*
X101830Y79950D01*
X102645Y79135D01*
X104510Y78363D01*
Y83798D01*
Y89233D01*
X102645Y88461D01*
X101830Y87646D01*
X100330Y88267D01*
Y115570D01*
X140970D01*
Y22576D01*
D02*
G37*
%LPC*%
G36*
X69376Y92900D02*
X67784D01*
X66314Y92291D01*
X65189Y91166D01*
X64580Y89696D01*
Y88104D01*
X65189Y86634D01*
X66314Y85509D01*
X67784Y84900D01*
X69376D01*
X70846Y85509D01*
X71971Y86634D01*
X72580Y88104D01*
Y89696D01*
X71971Y91166D01*
X70846Y92291D01*
X69376Y92900D01*
D02*
G37*
G36*
X50780Y77825D02*
Y73640D01*
X54965D01*
X54193Y75505D01*
X52646Y77053D01*
X50780Y77825D01*
D02*
G37*
G36*
X48280D02*
X46414Y77053D01*
X44867Y75505D01*
X44095Y73640D01*
X48280D01*
Y77825D01*
D02*
G37*
G36*
X54965Y71140D02*
X50780D01*
Y66955D01*
X52646Y67727D01*
X54193Y69275D01*
X54965Y71140D01*
D02*
G37*
G36*
X48280D02*
X44095D01*
X44867Y69275D01*
X46414Y67727D01*
X48280Y66955D01*
Y71140D01*
D02*
G37*
G36*
X41187Y57360D02*
X40093D01*
X39082Y56941D01*
X38309Y56168D01*
X37890Y55157D01*
Y54063D01*
X38309Y53052D01*
X39082Y52279D01*
X40093Y51860D01*
X41187D01*
X42198Y52279D01*
X42971Y53052D01*
X43390Y54063D01*
Y55157D01*
X42971Y56168D01*
X42198Y56941D01*
X41187Y57360D01*
D02*
G37*
G36*
X72937Y70060D02*
X71843D01*
X70832Y69641D01*
X70059Y68868D01*
X69640Y67857D01*
Y66763D01*
X70059Y65752D01*
X70832Y64979D01*
X70909Y64947D01*
Y63323D01*
X70832Y63291D01*
X70059Y62518D01*
X69640Y61507D01*
Y60413D01*
X70059Y59402D01*
X70832Y58629D01*
X70909Y58597D01*
Y56973D01*
X70832Y56941D01*
X70059Y56168D01*
X69640Y55157D01*
Y54063D01*
X70059Y53052D01*
X70832Y52279D01*
X70909Y52247D01*
Y50623D01*
X70832Y50591D01*
X70059Y49818D01*
X69640Y48807D01*
Y47713D01*
X70059Y46702D01*
X70832Y45929D01*
X71843Y45510D01*
X72937D01*
X73948Y45929D01*
X74721Y46702D01*
X75140Y47713D01*
Y48807D01*
X74721Y49818D01*
X73948Y50591D01*
X73871Y50623D01*
Y52247D01*
X73948Y52279D01*
X74721Y53052D01*
X75140Y54063D01*
Y55157D01*
X74721Y56168D01*
X73948Y56941D01*
X73871Y56973D01*
Y58597D01*
X73948Y58629D01*
X74721Y59402D01*
X75140Y60413D01*
Y61507D01*
X74721Y62518D01*
X73948Y63291D01*
X73871Y63323D01*
Y64947D01*
X73948Y64979D01*
X74721Y65752D01*
X75140Y66763D01*
Y67857D01*
X74721Y68868D01*
X73948Y69641D01*
X72937Y70060D01*
D02*
G37*
G36*
X70646Y30670D02*
X69054D01*
X67584Y30061D01*
X66459Y28936D01*
X65850Y27466D01*
Y25874D01*
X66459Y24404D01*
X67584Y23279D01*
X69054Y22670D01*
X70646D01*
X72116Y23279D01*
X73241Y24404D01*
X73850Y25874D01*
Y27466D01*
X73241Y28936D01*
X72116Y30061D01*
X70646Y30670D01*
D02*
G37*
G36*
X107010Y89233D02*
Y83798D01*
Y78363D01*
X108876Y79135D01*
X110423Y80682D01*
X111968Y80495D01*
X112034Y80429D01*
X113504Y79820D01*
X115096D01*
X116566Y80429D01*
X117691Y81554D01*
X118300Y83024D01*
Y84616D01*
X117691Y86086D01*
X116566Y87211D01*
X115096Y87820D01*
X113504D01*
X112034Y87211D01*
X111956Y87132D01*
X110423Y86914D01*
X108876Y88461D01*
X107010Y89233D01*
D02*
G37*
G36*
X109190Y59372D02*
X107599D01*
X106129Y58763D01*
X105003Y57638D01*
X104395Y56168D01*
Y54576D01*
X105003Y53106D01*
X106129Y51981D01*
X107599Y51372D01*
X109190D01*
X110660Y51981D01*
X111785Y53106D01*
X112395Y54576D01*
Y56168D01*
X111785Y57638D01*
X110660Y58763D01*
X109190Y59372D01*
D02*
G37*
G36*
X132876Y42100D02*
X131284D01*
X129814Y41491D01*
X128689Y40366D01*
X128080Y38896D01*
Y37304D01*
X128689Y35834D01*
X129814Y34709D01*
X131284Y34100D01*
X132876D01*
X134346Y34709D01*
X135471Y35834D01*
X136080Y37304D01*
Y38896D01*
X135471Y40366D01*
X134346Y41491D01*
X132876Y42100D01*
D02*
G37*
%LPD*%
D27*
X72390Y67310D02*
D03*
X99060Y41910D02*
D03*
Y35560D02*
D03*
X72390Y48260D02*
D03*
Y60960D02*
D03*
Y54610D02*
D03*
X40640D02*
D03*
D28*
X132080Y38100D02*
D03*
X105760Y83798D02*
D03*
X114300Y83820D02*
D03*
X108394Y55372D02*
D03*
X49530Y72390D02*
D03*
X68580Y88900D02*
D03*
X69850Y26670D02*
D03*
M02*
