G04*
G04 #@! TF.GenerationSoftware,Altium Limited,Altium Designer,26.3.0 (6)*
G04*
G04 Layer_Color=8388736*
%FSLAX44Y44*%
%MOMM*%
G71*
G04*
G04 #@! TF.SameCoordinates,41C90B2F-4F5D-4019-9CA7-D3A1E023C9F7*
G04*
G04*
G04 #@! TF.FilePolarity,Negative*
G04*
G01*
G75*
%ADD15R,0.7900X0.6900*%
%ADD16R,0.5080X1.0414*%
%ADD17R,1.3970X0.4572*%
%ADD18R,0.4572X2.4130*%
%ADD19R,0.4000X0.4000*%
%ADD20C,0.4500*%
%ADD21C,0.7000*%
G36*
X120650Y53594D02*
D01*
D01*
D01*
D01*
D01*
D01*
D01*
D01*
D02*
G37*
G36*
Y57150D02*
D01*
D01*
D01*
D01*
D01*
D01*
D01*
D01*
D02*
G37*
D15*
X62320Y46430D02*
D03*
X49520D02*
D03*
X62320Y38430D02*
D03*
X49520Y62430D02*
D03*
Y54430D02*
D03*
Y38430D02*
D03*
X62320Y54430D02*
D03*
Y62430D02*
D03*
D16*
X125159Y62135D02*
D03*
X116142D02*
D03*
X125159Y48609D02*
D03*
X116142D02*
D03*
D17*
X120650Y72644D02*
D03*
Y38100D02*
D03*
D18*
X108394Y55372D02*
D03*
X132906D02*
D03*
D19*
X68580Y96520D02*
D03*
X62580D02*
D03*
Y81280D02*
D03*
X68580D02*
D03*
X105760Y106680D02*
D03*
X111760D02*
D03*
X105760Y93980D02*
D03*
X111760D02*
D03*
X68580Y106680D02*
D03*
X62580D02*
D03*
X87630Y81280D02*
D03*
X81630D02*
D03*
D20*
X72390Y67310D02*
D03*
X99060Y41910D02*
D03*
Y35560D02*
D03*
X72390Y48260D02*
D03*
Y60960D02*
D03*
Y54610D02*
D03*
X40640D02*
D03*
D21*
X132080Y38100D02*
D03*
X105760Y83798D02*
D03*
X114300Y83820D02*
D03*
X108394Y55372D02*
D03*
X49530Y72390D02*
D03*
X68580Y88900D02*
D03*
X69850Y26670D02*
D03*
M02*
